<?xml version="1.0" standalone="no"?>
<!DOCTYPE svg PUBLIC "-//W3C//DTD SVG 20010904//EN"
 "http://www.w3.org/TR/2001/REC-SVG-20010904/DTD/svg10.dtd">
<svg version="1.0" xmlns="http://www.w3.org/2000/svg"
 width="1920.000000pt" height="1080.000000pt" viewBox="0 0 1920.000000 1080.000000"
 preserveAspectRatio="xMidYMid meet">

<g transform="translate(0.000000,1080.000000) scale(0.100000,-0.100000)"
fill="#ff003c" stroke="none">
<path d="M874 7601 l400 -400 860 -3 c852 -4 862 -4 941 -26 267 -74 477 -271
566 -532 31 -89 33 -103 33 -235 0 -104 -4 -157 -18 -205 -82 -299 -347 -541
-646 -589 -43 -7 -485 -11 -1297 -11 l-1233 0 0 -1200 0 -1200 400 0 400 0 0
794 0 794 888 5 c847 4 892 5 998 25 343 65 619 214 865 469 272 281 404 572
440 971 33 362 -58 728 -256 1022 -227 338 -555 576 -925 670 -192 49 -210 50
-1555 50 l-1260 0 399 -399z"/>
<path d="M5160 6546 c0 -1498 1 -1558 41 -1765 137 -708 713 -1325 1411 -1511
163 -43 281 -60 463 -67 504 -19 956 128 1335 434 103 83 291 280 372 388 225
302 347 650 374 1068 l6 107 -399 0 -400 0 -7 -84 c-21 -284 -143 -542 -354
-753 -265 -265 -574 -378 -958 -351 -278 20 -527 134 -728 333 -145 144 -237
287 -295 460 -63 188 -61 135 -61 1738 l0 1457 -400 0 -400 0 0 -1454z"/>
<path d="M9851 6143 l0 -1858 400 404 399 405 0 1453 0 1453 -400 0 -400 0 1
-1857z"/>
<path d="M12245 7989 c-96 -12 -253 -53 -339 -89 -176 -73 -322 -176 -473
-334 -197 -204 -309 -415 -369 -696 -28 -129 -25 -419 4 -557 60 -277 178
-495 377 -699 195 -198 422 -325 693 -385 94 -22 123 -23 857 -28 l760 -6 71
-26 c93 -34 169 -85 243 -164 183 -196 220 -441 101 -682 -87 -177 -260 -293
-463 -312 l-72 -6 -3 -404 -2 -404 102 7 c184 12 350 55 516 133 253 119 516
382 650 648 197 394 183 915 -35 1293 -74 127 -129 198 -243 312 -162 162
-328 266 -533 335 -204 68 -202 68 -1032 75 -571 5 -760 9 -790 19 -87 28
-181 87 -251 156 -118 118 -174 253 -174 425 0 172 56 307 176 427 103 102
202 147 377 168 l47 6 0 400 0 399 -62 -1 c-35 -1 -94 -5 -133 -10z"/>
<path d="M15345 7600 l400 -400 1202 0 1203 0 0 400 0 400 -1602 0 -1603 0
400 -400z"/>
<path d="M14950 5600 l0 -400 1600 0 1600 0 0 400 0 400 -1600 0 -1600 0 0
-400z"/>
<path d="M10245 3600 l-400 -400 1603 0 1602 0 0 400 0 400 -1203 0 -1202 0
-400 -400z"/>
<path d="M15347 3633 c-370 -341 -397 -369 -397 -400 l0 -33 1600 0 1600 0 0
400 0 400 -1203 0 -1204 0 -396 -367z"/>
</g>
</svg>
